<?xml version="1.0" standalone="no"?>
<!DOCTYPE svg PUBLIC "-//W3C//DTD SVG 20010904//EN"
 "http://www.w3.org/TR/2001/REC-SVG-20010904/DTD/svg10.dtd">
<svg version="1.0" xmlns="http://www.w3.org/2000/svg"
 width="800.000000pt" height="800.000000pt" viewBox="0 0 800.000000 800.000000"
 preserveAspectRatio="xMidYMid meet">
<metadata>
Created by potrace 1.16, written by Peter Selinger 2001-2019
</metadata>
<g transform="translate(0.000000,800.000000) scale(0.100000,-0.100000)"
fill="#000000" stroke="none">
<path d="M4530 5674 c-269 -50 -441 -158 -556 -349 -56 -92 -76 -167 -81 -310
-9 -226 41 -371 171 -499 55 -55 94 -82 166 -118 125 -61 179 -78 405 -128
441 -98 598 -169 712 -323 61 -84 86 -171 81 -290 -3 -80 -7 -101 -36 -159
-59 -120 -185 -210 -341 -243 -97 -20 -288 -19 -393 2 -294 59 -508 269 -560
551 -11 59 -28 92 -47 92 -4 0 -20 -39 -35 -87 -37 -116 -156 -361 -239 -496
-37 -59 -67 -112 -67 -117 0 -21 22 -18 86 12 65 30 76 32 189 32 110 1 135
-3 310 -46 346 -85 387 -92 605 -92 174 -1 204 1 279 22 257 71 465 259 547
495 38 107 44 289 15 409 -43 182 -145 317 -316 420 -128 77 -227 111 -560
193 -124 30 -256 67 -293 82 -154 61 -254 142 -301 243 -34 73 -41 195 -16
272 59 177 235 288 459 288 166 0 301 -56 422 -175 79 -78 106 -127 156 -282
18 -57 36 -103 39 -103 7 0 71 136 122 260 63 151 104 235 151 308 65 102 62
111 -26 66 -87 -44 -180 -44 -360 -1 -80 20 -186 43 -235 52 -85 15 -402 29
-453 19z"/>
<path d="M2200 5645 c-420 -79 -708 -383 -822 -868 -30 -128 -31 -140 -32
-382 -1 -276 7 -340 66 -525 116 -363 401 -638 758 -732 117 -31 405 -33 520
-4 377 96 639 395 736 841 28 125 29 140 28 385 -1 247 -2 259 -32 395 -40
180 -101 333 -184 460 -80 124 -137 187 -230 258 -92 70 -189 118 -303 153
-79 23 -111 27 -260 30 -118 2 -193 -1 -245 -11z m415 -186 c174 -67 299 -220
355 -436 41 -158 52 -270 57 -557 4 -229 2 -304 -12 -415 -52 -406 -186 -646
-410 -738 -65 -26 -79 -28 -205 -27 -121 0 -142 3 -203 27 -232 91 -360 298
-417 675 -28 184 -28 521 -1 723 55 403 179 630 401 731 87 40 134 48 265 44
85 -3 124 -9 170 -27z"/>
<path d="M2345 5370 c-110 -23 -204 -91 -274 -196 -88 -131 -136 -288 -167
-536 -21 -176 -15 -609 10 -738 35 -176 73 -278 143 -382 54 -82 182 -203 198
-187 7 7 -1 20 -25 43 -122 112 -195 261 -246 500 -23 106 -26 153 -31 386 -4
213 -2 290 11 393 30 234 76 379 155 495 78 116 176 171 316 179 107 6 180
-10 303 -67 68 -32 80 -35 72 -19 -16 29 -98 86 -160 110 -61 24 -233 35 -305
19z"/>
<path d="M3040 5561 c0 -5 29 -30 64 -55 201 -144 356 -390 431 -686 46 -184
58 -305 52 -537 -5 -193 -8 -224 -38 -350 -77 -327 -261 -607 -504 -765 -172
-112 -338 -158 -571 -158 -214 0 -388 42 -529 127 -74 45 -75 45 -75 40 0 -12
154 -109 223 -140 126 -58 215 -79 364 -85 203 -7 372 27 535 109 293 148 522
476 608 874 27 122 31 167 37 355 7 238 -5 356 -53 540 -76 288 -251 561 -434
674 -92 58 -110 67 -110 57z"/>
<path d="M5572 5258 c-84 -167 -152 -308 -152 -315 0 -11 38 -29 45 -21 2 2
56 109 119 238 63 129 133 267 155 306 l40 71 -25 12 c-14 6 -26 11 -27 11 -2
0 -71 -136 -155 -302z"/>
<path d="M4640 5416 c-84 -18 -144 -52 -199 -112 -65 -71 -85 -130 -79 -233 6
-91 35 -156 100 -217 46 -44 136 -99 145 -90 3 3 -26 35 -65 71 -161 149 -178
327 -43 448 74 67 119 82 251 82 96 0 125 -4 175 -23 83 -32 170 -87 233 -146
29 -27 55 -46 58 -43 13 12 -60 110 -116 156 -69 58 -160 96 -264 110 -94 13
-125 13 -196 -3z"/>
<path d="M4030 4427 c0 -23 57 -103 91 -130 88 -65 234 -116 599 -206 385 -95
457 -123 572 -222 31 -27 59 -49 63 -49 3 0 -6 23 -22 51 -70 126 -175 172
-708 305 -341 86 -430 121 -505 199 -43 45 -90 72 -90 52z"/>
<path d="M5660 4366 c0 -5 20 -32 43 -60 58 -68 110 -164 139 -256 20 -64 23
-96 23 -220 -1 -132 -3 -153 -29 -230 -92 -279 -321 -488 -631 -578 -84 -25
-104 -26 -295 -27 -224 0 -204 -3 -600 90 -194 46 -351 56 -450 31 -36 -9 -68
-20 -73 -25 -4 -4 -3 -20 2 -34 l10 -26 57 19 c42 15 84 20 159 20 110 0 190
-13 410 -65 248 -58 329 -68 525 -63 150 5 189 9 275 33 312 86 555 305 657
591 30 86 31 94 31 254 0 153 -2 170 -26 239 -15 41 -45 102 -67 135 -38 59
-160 189 -160 172z"/>
<path d="M4232 3801 c-22 -13 29 -162 85 -251 71 -112 163 -184 311 -241 44
-17 21 7 -41 44 -81 47 -193 163 -239 247 -19 36 -45 98 -57 138 -21 70 -31
81 -59 63z"/>
</g>
</svg>
